<svg xmlns="http://www.w3.org/2000/svg" version="1.1" xmlns:xlink="http://www.w3.org/1999/xlink" xmlns:svgjs="http://svgjs.dev/svgjs" width="1500" height="935" viewBox="0 0 1500 935"><g transform="matrix(1,0,0,1,-0.9090909090909918,0.3785425101214628)"><svg viewBox="0 0 396 247" data-background-color="#01041e" preserveAspectRatio="xMidYMid meet" height="935" width="1500" xmlns="http://www.w3.org/2000/svg" xmlns:xlink="http://www.w3.org/1999/xlink"><g id="tight-bounds" transform="matrix(1,0,0,1,0.2400000000000091,-0.09999999999999432)"><svg viewBox="0 0 395.52 247.2" height="247.2" width="395.52"><g><svg></svg></g><g><svg viewBox="0 0 395.52 247.2" height="247.2" width="395.52"><g transform="matrix(1,0,0,1,75.54432,52.79382613915416)"><svg viewBox="0 0 244.43135999999998 141.61234772169166" height="141.61234772169166" width="244.43135999999998"><g><svg viewBox="0 0 244.43135999999998 141.61234772169166" height="141.61234772169166" width="244.43135999999998"><g><svg viewBox="0 0 244.43135999999998 141.61234772169166" height="141.61234772169166" width="244.43135999999998"><g><svg viewBox="0 0 244.43135999999998 141.61234772169166" height="141.61234772169166" width="244.43135999999998"><g id="textblocktransform"><svg viewBox="0 0 244.43135999999998 141.61234772169166" height="141.61234772169166" width="244.43135999999998" id="textblock"><g><svg viewBox="0 0 244.43135999999998 141.61234772169166" height="141.61234772169166" width="244.43135999999998"><g transform="matrix(1,0,0,1,0,0)"><svg width="244.43135999999998" viewBox="4.88 -31.85 54.97 31.85" height="141.61234772169166" data-palette-color="#ffffff"><path d="M9.63 0L4.88 0 4.88-31.85 16.28-31.85Q21.85-31.85 24.76-29.21 27.68-26.58 27.68-22.28L27.68-22.28Q27.68-18.03 24.76-15.4 21.85-12.78 16.28-12.78L16.28-12.78 9.63-12.78 9.63 0ZM28.63 0L22.45 0 13.63-14.65 18.75-14.65 28.63 0ZM9.63-27.75L9.63-16.03 15.85-16.03Q19.25-16.03 21.03-17.66 22.8-19.3 22.8-21.9L22.8-21.9Q22.8-24.58 21.14-26.16 19.48-27.75 16.28-27.75L16.28-27.75 9.63-27.75ZM37.5 0L32.5 0 43.4-31.85 49.27-31.85 59.85 0 54.85 0 52.37-7.6 40.07-7.6 37.5 0ZM46.25-26.13L41.27-11.25 51.2-11.25 46.25-26.13Z" opacity="1" transform="matrix(1,0,0,1,0,0)" fill="#ffffff" class="wordmark-text-0" data-fill-palette-color="primary" id="text-0"></path></svg></g></svg></g></svg></g></svg></g></svg></g></svg></g></svg></g><g><path d="M245.816 0c68.262 0 123.6 55.338 123.6 123.6 0 68.262-55.338 123.6-123.6 123.6-34.068 0-64.917-13.784-87.275-36.078h9.304c20.717 18.469 48.033 29.693 77.971 29.693 64.736 0 117.215-52.479 117.214-117.215 0-64.736-52.479-117.215-117.214-117.215-29.938 0-57.254 11.224-77.971 29.693h-9.304c22.357-22.295 53.206-36.078 87.275-36.078z" fill="#ffffff" stroke="transparent" data-fill-palette-color="tertiary"></path></g></svg></g><defs></defs></svg><rect width="395.52" height="247.2" fill="none" stroke="none" visibility="hidden"></rect></g></svg></g></svg>